<?xml version="1.0" encoding="UTF-8" standalone="no"?>
<!-- Created with Inkscape (http://www.inkscape.org/) -->

<svg
   width="400"
   height="400"
   viewBox="0 0 105.83333 105.83333"
   version="1.1"
   id="svg5"
   xml:space="preserve"
   inkscape:version="1.3.1 (91b66b0, 2023-11-16)"
   sodipodi:docname="french-touch-logo.svg"
   inkscape:export-filename="hardliner-01.png"
   inkscape:export-xdpi="300"
   inkscape:export-ydpi="300"
   xmlns:inkscape="http://www.inkscape.org/namespaces/inkscape"
   xmlns:sodipodi="http://sodipodi.sourceforge.net/DTD/sodipodi-0.dtd"
   xmlns="http://www.w3.org/2000/svg"
   xmlns:svg="http://www.w3.org/2000/svg"><sodipodi:namedview
     id="namedview7"
     pagecolor="#141414"
     bordercolor="#999999"
     borderopacity="1"
     inkscape:showpageshadow="0"
     inkscape:pageopacity="0"
     inkscape:pagecheckerboard="0"
     inkscape:deskcolor="#d1d1d1"
     inkscape:document-units="mm"
     showgrid="false"
     inkscape:zoom="0.8409652"
     inkscape:cx="604.66236"
     inkscape:cy="457.21274"
     inkscape:window-width="2317"
     inkscape:window-height="1189"
     inkscape:window-x="363"
     inkscape:window-y="155"
     inkscape:window-maximized="0"
     inkscape:current-layer="svg5"
     showguides="false" /><defs
     id="defs2"><inkscape:path-effect
       effect="perspective-envelope"
       up_left_point="19.169533,188.95963"
       up_right_point="555.22961,188.95963"
       down_left_point="19.169533,505.52955"
       down_right_point="555.22961,505.52955"
       id="path-effect1163"
       is_visible="true"
       lpeversion="1"
       deform_type="envelope_deformation"
       horizontal_mirror="true"
       vertical_mirror="false"
       overflow_perspective="false" /><inkscape:path-effect
       effect="bounding_box"
       id="path-effect1114"
       is_visible="true"
       lpeversion="1"
       linkedpath=""
       visualbounds="true" /></defs><path
     id="path3"
     style="fill:#f3fdff;fill-opacity:1;stroke-width:0.350409"
     d="m 57.121197,3.8846183 c -0.205048,0.056626 -0.41719,0.098537 -0.617876,0.1643194 -0.273932,0.2104345 -0.555444,0.4132357 -0.82458,0.6285314 -0.183869,0.2513994 -0.401831,0.4805952 -0.533279,0.7660357 -0.184697,0.3278243 -0.283627,0.6978879 -0.36448,1.0606729 -0.272907,0.3647952 -0.4915,0.7732223 -0.619177,1.211263 -0.383517,0.7083196 -0.48949,1.5538023 -0.323278,2.3397163 0.03902,0.353759 0.01826,0.712287 0.0268,1.067977 -0.0026,0.727055 -0.01498,1.454005 -0.0314,2.180862 7.9e-5,0.01182 -0.0039,0.174436 -0.0066,0.241966 -0.02036,0.821571 -0.04795,1.642932 -0.07817,2.464187 -0.0013,0.03232 -0.0079,0.182254 -0.01051,0.260019 -0.0092,0.225504 -0.01813,0.451008 -0.02733,0.676512 -3.02e-4,0.01576 -0.0079,0.174685 -0.01051,0.242977 -0.06438,-0.0896 -0.156633,-0.192225 -0.232441,-0.28456 -0.110361,-0.179389 -0.262488,-0.330544 -0.395735,-0.492853 -0.197822,-0.170074 -0.392373,-0.344667 -0.62145,-0.47241 -0.492643,-0.29963 -1.065915,-0.446528 -1.638005,-0.488413 -0.883872,-0.0603 -1.770779,-0.03455 -2.656083,-0.04152 -0.800984,0.0079 -1.604569,-0.01918 -2.403121,0.05544 -0.585504,0.05807 -1.165608,0.240849 -1.651931,0.576937 -0.178457,0.114303 -0.334486,0.262515 -0.491789,0.403159 -0.136138,0.167512 -0.286282,0.325696 -0.401136,0.507897 -0.06727,0.08225 -0.117193,0.152324 -0.181938,0.02969 -0.08264,-0.09302 -0.13753,-0.207636 -0.228223,-0.295964 -0.126521,-0.160654 -0.261556,-0.312821 -0.424535,-0.437568 -0.16721,-0.15373 -0.363586,-0.273314 -0.559122,-0.386552 -0.503022,-0.266784 -1.068451,-0.391518 -1.634142,-0.422012 -0.984669,-0.04874 -1.97119,-0.02509 -2.956686,-0.03074 -0.72239,0.01051 -1.451271,-0.01958 -2.166751,0.09814 -0.494391,0.08527 -0.972608,0.272513 -1.383216,0.562183 -0.169417,0.116142 -0.320822,0.259927 -0.471898,0.398272 -0.133865,0.165541 -0.274943,0.327443 -0.394067,0.502352 -0.206769,0.228867 -0.376659,0.492209 -0.509814,0.770187 -0.226398,0.477968 -0.332975,1.006281 -0.336194,1.533885 -0.0066,0.549426 0.09354,1.103424 0.328468,1.602308 0.01182,0.310653 0.01458,0.622698 0.0205,0.933929 3.68e-4,0.0039 0.0013,0.173871 0.0026,0.240258 0.0011,0.14184 0.0039,0.283667 0.0039,0.425507 -2.646335,-0.03074 -5.292946,-0.01984 -7.939412,-0.01892 -1.336904,0.0079 -2.67457,-0.0026 -4.010632,0.05124 -0.58917,0.0243 -1.187536,0.09092 -1.733796,0.326747 -0.191568,0.08855 -0.378656,0.193512 -0.558807,0.302678 -0.204535,0.177405 -0.419108,0.346244 -0.617416,0.528943 -0.182529,0.308748 -0.378708,0.612385 -0.552409,0.924509 -0.05662,0.331109 -0.124812,0.661784 -0.174357,0.993169 0.02155,0.254815 0.0632,0.514124 0.07226,0.766233 -0.10366,0.204956 -0.208595,0.409386 -0.261095,0.634561 -0.178298,0.57255 -0.166973,1.182346 -0.141498,1.775312 0.04401,0.737868 0.287437,1.467393 0.727908,2.06384 v 3.99191 h -1.977968 v 3.160893 c -1.468036,1.162231 -2.700846,2.614659 -3.645141,4.229527 -0.606262,1.042201 -1.064391,2.167474 -1.39994,3.324345 -0.3907035,1.385239 -0.5086185,2.832871 -0.4991985,4.267483 0.01314,1.104187 0.154282,2.208124 0.4419555,3.274854 -1.2932057,1.006622 -2.4870079,2.140133 -3.5748638,3.365257 -1.0215999,1.142971 -1.8630358,2.436978 -2.5784238,3.78991 -1.0419641,1.989005 -1.7616351,4.144694 -2.1449814,6.356286 -0.2283025,1.485549 -0.2798174,2.993276 -0.251452,4.494209 0.029167,1.148161 0.1175869,2.299566 0.3673571,3.422882 0.5753348,2.806752 1.6247089,5.527949 3.1865252,7.935694 1.3872623,2.14263 3.1487923,4.043385 5.1801277,5.589081 2.164663,1.646216 4.654824,2.845865 7.267828,3.587845 0.956487,0.267073 1.92489,0.504388 2.910294,0.635862 1.204431,0.148317 2.420792,0.11877 3.631726,0.126653 1.217622,-0.01051 2.442102,0.0053 3.650172,-0.169483 0.08369,-0.0026 0.136217,0.104186 0.207531,0.145032 3.183254,2.726268 6.94313,4.738107 10.910393,6.063489 3.717926,1.2425 7.616712,1.90706 11.527835,2.10281 2.69069,0.1118 5.389249,-0.0357 8.059456,-0.37645 2.539942,-0.3285 5.050415,-0.88821 7.488168,-1.673532 2.994156,-0.968298 5.869424,-2.327379 8.467792,-4.107736 0.97082,-0.665673 1.904539,-1.385659 2.7923,-2.158698 1.199137,0.178351 2.415405,0.164057 3.624553,0.174384 1.182359,-0.0066 2.368988,0.0201 3.546288,-0.109047 1.006715,-0.119952 1.995062,-0.360736 2.97056,-0.631738 3.05241,-0.864204 5.936336,-2.35401 8.35496,-4.413173 2.786152,-2.361919 4.937863,-5.448357 6.258843,-8.849245 0.95348,-2.45658 1.42407,-5.0887 1.46463,-7.720307 0.041,-2.274091 -0.19306,-4.567481 -0.86073,-6.747936 -0.40682,-1.331845 -0.94632,-2.624223 -1.61113,-3.847954 -1.005035,-1.811732 -2.29205,-3.458867 -3.740615,-4.936455 -0.727278,-0.738196 -1.50138,-1.431564 -2.327445,-2.057744 0.413157,-1.516187 0.507095,-3.103518 0.402147,-4.666871 -0.07147,-1.246447 -0.293362,-2.487849 -0.715177,-3.664861 -0.388313,-1.122646 -0.903777,-2.202619 -1.559491,-3.194211 -0.883491,-1.344366 -1.968155,-2.562198 -3.232167,-3.55986 v -3.161187 h -1.335297 c -0.06898,-0.266416 -0.165003,-0.526277 -0.292601,-0.76978 -0.07239,-0.129805 -0.167262,-0.253593 -0.226332,-0.387051 0.0066,-0.308012 -0.0092,-0.619479 0.02155,-0.925192 0.183199,-0.530652 0.239614,-1.095371 0.225727,-1.654283 0,-1.103267 0,-2.206534 0,-3.309814 h -2.637204 c -0.249166,-1.004402 -0.764157,-1.932576 -1.443283,-2.709714 -0.0026,-0.702631 -0.04835,-1.415719 -0.267454,-2.087646 -0.05689,-0.314621 -0.09735,-0.635915 -0.164451,-0.946358 -0.227436,-0.322293 -0.445714,-0.653375 -0.679022,-0.970072 -0.23968,-0.1755 -0.469388,-0.368079 -0.715177,-0.533082 -0.275101,-0.10931 -0.536302,-0.260793 -0.831596,-0.309115 -0.240468,-0.06385 -0.490751,-0.09144 -0.738984,-0.09407 -0.09302,0.02483 -0.150813,-0.01406 -0.185564,-0.09946 -0.4915,-0.737355 -1.11965,-1.368737 -1.749219,-1.987297 -0.05019,-0.890691 -0.02588,-1.802416 -0.29201,-2.663585 -0.07528,-0.265707 -0.191226,-0.517816 -0.30771,-0.766601 -0.04874,-0.24152 -0.09906,-0.482632 -0.194971,-0.710685 -0.07371,-0.243148 -0.229616,-0.449431 -0.352077,-0.66918 -0.253869,-0.331517 -0.545288,-0.636572 -0.889587,-0.875241 -0.209607,-0.140565 -0.425691,-0.274904 -0.666067,-0.356597 -0.171966,-0.07305 -0.343262,-0.148632 -0.532321,-0.160273 -0.222521,-0.03193 -0.445122,-0.07804 -0.667512,-0.101427 -0.37143,0.07226 -0.748693,0.129674 -1.116576,0.210829 -0.317445,0.207019 -0.644127,0.403947 -0.955646,0.617561 -0.190714,0.25337 -0.399139,0.496322 -0.578607,0.75634 -0.107996,0.277452 -0.261909,0.539861 -0.311335,0.836509 -0.04086,0.119426 -0.03692,0.252319 -0.08776,0.365977 -0.40099,0.766299 -0.490974,1.642866 -0.535381,2.493381 -0.01879,0.331122 -0.03271,0.662533 -0.04769,0.993865 -0.68249,0.641012 -1.349805,1.315252 -1.8466,2.114685 -0.439144,-0.0066 -0.880167,0.06214 -1.290972,0.219605 -0.230746,0.09643 -0.467759,0.188257 -0.666172,0.344325 -0.170771,0.12639 -0.370668,0.220486 -0.493182,0.400637 -0.164109,0.196639 -0.340214,0.386263 -0.496492,0.587513 -0.131947,0.369315 -0.28008,0.736226 -0.401714,1.107156 0.01182,0.117062 0.018,0.2334 -0.03705,0.341462 -0.185353,0.628939 -0.218908,1.289238 -0.224098,1.941116 -0.678916,0.77698 -1.194433,1.704997 -1.442692,2.709425 H 63.29583 c -0.03482,-0.09972 -0.05203,-0.200226 -0.01761,-0.302625 0.05387,-0.311941 0.05071,-0.632657 0.01852,-0.946424 -0.05846,-0.247799 -0.07541,-0.508605 -0.197901,-0.736238 -0.09105,-0.201776 -0.159024,-0.416783 -0.307578,-0.585885 -0.09985,-0.109704 -0.0716,-0.272341 -0.109178,-0.407822 -0.205377,-1.389535 -0.310955,-2.791447 -0.41995,-4.191138 -0.186628,-2.593151 -0.325328,-5.190218 -0.391728,-7.789335 -0.01537,-0.869998 -0.04047,-1.741455 0.0079,-2.61077 C 62.073457,9.432564 62.009277,8.5955554 61.669588,7.8763704 61.594044,7.7464337 61.552659,7.6037791 61.505965,7.4619392 61.368185,7.1161944 61.186024,6.7886985 60.960494,6.4924059 60.885869,6.053485 60.726857,5.6311839 60.499277,5.2488098 60.363494,5.0426058 60.203261,4.8495138 60.050161,4.6562377 59.775034,4.4529898 59.506752,4.2355527 59.227263,4.041265 58.779527,3.9240723 58.331764,3.806827 57.884001,3.6896606 L 57.12075,3.8846314 Z"
     sodipodi:nodetypes="sccccccccccccccccccccccccccccccccccccccccccccccccccccccccccccccccccccccccccccccccccccccccccccccccccccccccccccccccccccccccccccccccccccccccccccccccccs" /><path
     style="fill:#00a2e1;fill-opacity:1;stroke-width:0.350409"
     d="M 49.84081,97.394357 C 41.607772,96.854863 34.588138,94.184459 29.490715,89.652727 l -0.880509,-0.782787 -0.973738,0.207439 c -0.747327,0.159209 -1.620478,0.207413 -3.75512,0.207334 -2.422986,-1.05e-4 -2.948605,-0.03613 -4.079331,-0.279621 -3.816633,-0.821859 -6.96448,-2.480071 -9.55009,-5.030799 C 7.355428,81.116906 5.5432765,77.61689 4.751214,73.350169 4.4365542,71.655144 4.4687033,68.429506 4.8178247,66.67197 c 0.5305466,-2.671297 1.5524619,-5.061963 3.0769657,-7.198273 1.0174881,-1.425823 3.0796976,-3.428925 4.5955176,-4.463782 0.838887,-0.57272 1.13514,-0.841751 1.088999,-0.988938 -0.03482,-0.111149 -0.200489,-0.592835 -0.368054,-1.07029 -0.457524,-1.303677 -0.623552,-2.578306 -0.543212,-4.170655 0.07817,-1.549085 0.302678,-2.53943 0.894633,-3.946294 0.776967,-1.846521 2.30938,-3.738842 3.92727,-4.849637 l 0.705114,-0.484103 v -0.844773 -0.844773 h 0.988925 0.988938 v -4.118023 -4.118011 l -0.370852,-0.355309 c -0.31148,-0.298408 -0.370852,-0.450548 -0.370852,-0.950246 0,-0.578646 0.01051,-0.594951 0.370852,-0.594951 h 0.370852 v -0.927136 c 0,-0.741691 -0.03705,-0.92711 -0.185432,-0.92711 -0.101953,0 -0.18542,-0.08343 -0.18542,-0.185432 0,-0.162678 0.87218,-0.18542 7.107936,-0.18542 6.235756,0 7.107948,0.02273 7.107948,0.18542 0,0.101952 -0.08343,0.185432 -0.185432,0.185432 -0.14833,0 -0.185419,0.185419 -0.185419,0.92711 v 0.927136 h 0.370851 c 0.360683,0 0.370852,0.01629 0.370852,0.594951 0,0.499698 -0.05938,0.651838 -0.370852,0.950246 l -0.370851,0.355309 v 4.118011 4.118023 h 0.865307 0.865335 V 28.72464 c 0,-7.993857 -0.02233,-9.085799 -0.185446,-9.085799 -0.12363,0 -0.185406,-0.123631 -0.185406,-0.370852 0,-0.247235 0.06175,-0.370852 0.185406,-0.370852 0.103003,0 0.185446,-0.109835 0.185446,-0.247235 0,-0.239181 0.08238,-0.247234 2.534121,-0.247234 2.451733,0 2.534148,0.0079 2.534148,0.247234 0,0.13736 0.08238,0.247235 0.185433,0.247235 0.12363,0 0.185406,0.12363 0.185406,0.370852 0,0.247234 -0.06175,0.370852 -0.185406,0.370852 -0.158171,0 -0.185433,0.336508 -0.185433,2.2869 v 2.2869 h 2.657753 2.657739 v -2.2869 c 0,-1.950392 -0.02733,-2.2869 -0.18542,-2.2869 -0.12363,0 -0.185419,-0.123631 -0.185419,-0.370852 0,-0.247235 0.06175,-0.370852 0.185419,-0.370852 0.103004,0 0.18542,-0.109835 0.18542,-0.247235 0,-0.239378 0.08238,-0.247234 2.59595,-0.247234 2.513534,0 2.59595,0.0079 2.59595,0.247234 0,0.13736 0.08238,0.247235 0.185406,0.247235 0.12363,0 0.185446,0.12363 0.185446,0.370852 0,0.247234 -0.06188,0.370852 -0.185446,0.370852 -0.163137,0 -0.185327,1.095068 -0.184723,9.1167 l 0.0013,9.116726 1.111163,-1.854246 c 1.082141,-1.805845 1.111176,-1.874414 1.111846,-2.626851 0.0013,-0.768388 0.0026,-0.772605 0.356058,-0.772605 0.340556,0 0.381061,-0.06569 0.972437,-1.576111 1.028117,-2.62601 1.276494,-3.843448 0.844497,-4.139254 -0.07528,-0.05163 -0.01603,-0.09157 0.137189,-0.09276 0.148383,-0.0011 0.299328,-0.09919 0.335445,-0.218226 0.134811,-0.444373 0.560488,-3.734059 0.68379,-5.284603 0.297686,-3.743138 0.514085,-11.266556 0.339925,-11.818491 -0.07449,-0.235976 -0.04756,-0.376292 0.100638,-0.5244247 0.111281,-0.1112805 0.173201,-0.2492448 0.137715,-0.3066718 -0.09381,-0.1516674 0.278793,-0.6391733 0.488439,-0.6391733 0.131684,0 0.178403,-0.1618757 0.178403,-0.6180865 0,-0.3399377 0.05557,-0.6180733 0.123631,-0.6180733 0.06792,0 0.12363,0.2781356 0.12363,0.6180733 0,0.4562108 0.04677,0.6180865 0.178417,0.6180865 0.209646,0 0.582193,0.4875059 0.488452,0.6391733 -0.03547,0.057414 0.02654,0.1954307 0.137701,0.3066718 0.148147,0.1481327 0.17504,0.2884487 0.100639,0.5244247 -0.324868,1.029601 0.226883,12.299113 0.769281,15.712416 0.231219,1.4552 0.277597,1.607012 0.490738,1.607012 0.135415,0 0.144323,0.07555 0.04322,0.365728 -0.18467,0.529758 0.321348,2.21686 1.586582,5.289727 0.03495,0.085 0.224558,0.154518 0.42125,0.154518 0.356912,0 0.357622,0.0013 0.357622,0.785612 0,0.763789 0.02838,0.833014 1.019826,2.491015 l 1.019853,1.705391 0.03758,-0.789067 c 0.0226,-0.475892 -0.01419,-0.806304 -0.09276,-0.832489 -0.0716,-0.02391 -0.130199,-0.177852 -0.130199,-0.342158 0,-0.216333 0.06819,-0.298736 0.247221,-0.298736 0.235883,0 0.247248,-0.08238 0.247248,-1.792444 0,-1.112543 -0.0469,-1.792445 -0.12363,-1.792445 -0.06793,0 -0.123631,-0.222508 -0.123631,-0.494456 v -0.494469 h 0.988938 0.988926 V 30.26981 c 0,-0.412053 0.04125,-0.494456 0.247234,-0.494456 0.218436,0 0.247379,-0.08277 0.248404,-0.710803 0.0013,-0.819114 0.408953,-1.652049 1.161285,-2.372968 l 0.444588,-0.425993 v -1.126483 c 0,-0.783719 0.05387,-1.199491 0.177103,-1.366438 0.356886,-0.483551 0.675408,0.346231 0.690832,1.799723 0.0079,0.797226 0.0138,0.809221 0.682845,1.534305 l 0.674318,0.730812 v -0.630804 c 0,-0.34694 -0.05557,-0.665174 -0.12363,-0.70719 -0.165739,-0.102478 -0.158421,-0.556271 0.0092,-0.556271 0.08001,0 0.124813,-0.257377 0.11312,-0.648988 -0.03074,-1.025593 -0.018,-1.081654 0.248798,-1.081654 0.224401,0 0.24734,-0.08277 0.248391,-0.896209 0.0013,-1.163269 0.359395,-1.809958 1.699097,-3.070252 l 0.979453,-0.921395 0.07265,-1.634536 c 0.06214,-1.396184 0.111018,-1.688285 0.335129,-2.003076 0.144336,-0.202696 0.253068,-0.439512 0.241612,-0.526251 -0.05137,-0.389442 0.0013,-0.482789 0.180256,-0.31709 0.124287,0.115353 0.132788,0.184053 0.03087,0.248588 -0.09604,0.06083 -0.101559,0.143705 -0.01721,0.260793 0.58377,0.81039 0.581418,0.801732 0.649947,2.388813 l 0.06766,1.568215 1.074192,1.060515 c 1.300327,1.28376 1.607577,1.860132 1.607577,3.015597 0,0.652075 0.03915,0.826288 0.185432,0.826288 0.200239,0 0.216649,0.09486 0.186996,1.081654 -0.01182,0.391611 0.03311,0.648988 0.11312,0.648988 0.167381,0 0.174685,0.453833 0.0092,0.556271 -0.06792,0.04204 -0.123631,0.36025 -0.123631,0.70719 v 0.630804 l 0.674318,-0.730812 c 0.669037,-0.725084 0.674384,-0.737079 0.682845,-1.534305 0.01537,-1.453492 0.333933,-2.283274 0.690819,-1.799723 0.123237,0.166947 0.177116,0.582719 0.177116,1.366438 v 1.126483 l 0.444571,0.425993 c 0.752319,0.720919 1.159945,1.553854 1.161272,2.372968 0.0013,0.628006 0.02996,0.710803 0.248391,0.710803 0.206033,0 0.247247,0.08238 0.247247,0.494456 v 0.494469 h 0.988912 0.988952 v 0.494469 c 0,0.271948 -0.05557,0.494456 -0.12363,0.494456 -0.07673,0 -0.123631,0.679902 -0.123631,1.792445 v 1.792444 h 0.30905 c 0.247221,0 0.309037,0.06175 0.309037,0.309037 0,0.19229 -0.07003,0.309036 -0.18542,0.309036 -0.148343,0 -0.185419,0.185433 -0.185419,0.927123 v 0.927124 h 0.803506 0.803492 v 0.844772 0.844773 l 0.705127,0.484104 c 1.617891,1.110795 3.150304,3.003116 3.927257,4.849637 0.591955,1.406864 0.816473,2.397208 0.894633,3.946294 0.0804,1.592349 -0.08566,2.866978 -0.543212,4.170655 -0.167552,0.477455 -0.333185,0.959088 -0.368054,1.07029 -0.04625,0.147384 0.249495,0.414247 1.090799,0.984432 2.40994,1.63334 4.9217,4.521431 6.163509,7.087032 1.246922,2.576138 1.777277,4.974043 1.779067,8.043704 0.003,3.564642 -0.809295,6.714735 -2.489843,9.666836 -2.728961,4.793839 -7.174034,7.997903 -12.766281,9.202111 -1.130739,0.24349 -1.656346,0.279515 -4.079345,0.27962 -2.134628,7.9e-5 -3.007793,-0.04809 -3.755107,-0.207334 L 76.264547,88.8699 75.384038,89.652687 c -3.951339,3.512813 -8.772676,5.794996 -14.787356,6.999625 -3.337457,0.668432 -7.497431,0.955449 -10.754639,0.742005 z m 7.293368,-6.739724 c 4.553003,-0.684579 8.743628,-2.457408 11.650835,-4.928848 0.902778,-0.767454 1.12032,-1.129175 0.370852,-0.616602 -1.783721,1.219882 -5.547289,2.447857 -9.25653,3.020196 -2.155703,0.332633 -6.913031,0.466327 -8.835885,0.248312 -1.878538,-0.212983 -4.129046,-0.689611 -5.642671,-1.195037 -2.426441,-0.810246 -5.060361,-2.352473 -6.39059,-3.741838 L 38.54154,82.93045 h 3.67767 3.677671 l 0.300352,-0.324093 c 0.165213,-0.178246 0.332501,-0.525922 0.371772,-0.772605 0.03928,-0.246683 0.08829,-0.535526 0.108784,-0.64188 0.05768,-0.298381 -0.14025,-1.588395 -0.304741,-1.985483 -0.18513,-0.446949 -0.32358,-0.451692 -0.419634,-0.01432 -0.04112,0.187495 -0.237893,0.626337 -0.437134,0.975222 -0.449602,0.787201 -1.319863,1.279818 -2.260965,1.279818 -0.502011,0 -0.664005,-0.0607 -0.964659,-0.36134 l -0.361353,-0.36134 v -2.400085 -2.400099 l 0.896222,0.0039 c 1.236764,0.0053 1.853064,-0.353733 2.374282,-1.384293 0.249718,-0.49376 0.209449,-0.561868 -0.232782,-0.393725 -0.525909,0.199937 -1.046418,0.151851 -2.079265,-0.19212 l -0.958457,-0.319193 v -1.592507 c 0,-1.885555 0.0134,-1.903528 1.359869,-1.827444 1.422302,0.0804 2.196877,0.742518 2.79527,2.389509 l 0.134732,0.370852 0.393055,-0.817734 c 0.668064,-1.38989 0.63962,-2.637375 -0.07292,-3.197864 -0.302625,-0.238051 -0.493681,-0.249166 -4.283315,-0.249166 -3.62965,0 -3.943154,0.01642 -3.691111,0.192935 0.552435,0.386946 0.644876,0.781906 0.644876,2.755237 v 1.847914 l -0.525371,0.271645 c -0.664976,0.34384 -0.898718,0.552724 -1.3492,1.205811 -0.405419,0.587737 -0.382335,0.598865 0.700226,0.337468 1.294861,-0.312663 1.174345,-0.618008 1.174345,2.975407 0,3.386095 -0.02168,3.521746 -0.656923,4.115107 l -0.309563,0.289145 -0.679349,-0.907232 C 36.386797,80.225978 35.631508,78.632604 35.119815,76.641813 L 34.8856,75.730534 35.722805,74.95542 C 36.803041,73.955288 37.248347,73.149023 37.3269,72.051037 37.401657,71.006012 37.217722,70.43479 36.585932,69.749304 35.692811,68.780388 35.339485,68.7145 31.036936,68.7145 h -3.713341 l 0.380404,0.380404 c 0.209212,0.209225 0.41024,0.501261 0.446711,0.648987 0.03652,0.147726 0.05032,2.946937 0.03087,6.220477 l -0.03547,5.951892 -0.407573,0.507056 -0.407586,0.507081 h 2.305543 2.305517 l -0.383635,-0.436963 -0.383649,-0.436963 v -2.937767 c 0,-3.022219 0.03285,-3.234453 0.500014,-3.234453 0.339451,0 0.570276,0.391873 0.728145,1.236173 0.08264,0.441929 0.314739,1.298829 0.515806,1.904237 2.216886,6.674914 8.788508,11.028071 17.911028,11.864633 1.111137,0.101952 5.038065,-0.04428 6.304443,-0.234714 z M 31.433026,73.816653 c -0.27556,-0.223126 -0.295754,-0.323501 -0.30118,-1.49665 -0.0039,-0.846192 0.04454,-1.307908 0.148278,-1.411634 0.09709,-0.09722 0.516081,-0.154137 1.133761,-0.154137 0.902725,0 1.006294,0.02654 1.318339,0.338348 0.286886,0.286609 0.338663,0.442034 0.338663,1.016673 0,1.057861 -0.672623,1.786124 -1.744805,1.889154 -0.465854,0.0448 -0.662822,0.0053 -0.893056,-0.181754 z m -13.794305,8.809162 c 1.487244,-0.334722 2.377422,-0.683226 3.305885,-1.294257 3.458972,-2.276377 5.817134,-7.339339 5.617473,-12.060721 -0.03455,-0.815869 -0.151983,-1.817157 -0.261043,-2.225098 -0.497688,-1.861433 -1.626456,-3.402307 -2.976669,-4.063447 -1.289895,-0.631606 -1.859567,-0.691976 -6.547551,-0.69396 -4.032809,-0.0013 -4.303837,0.01183 -4.035214,0.199872 0.158381,0.110886 0.420541,0.486428 0.582574,0.834406 l 0.294598,0.632723 0.0011,8.308569 c 0.0011,8.018505 -0.0079,8.33172 -0.247011,8.971996 -0.136519,0.364888 -0.453373,0.903094 -0.704103,1.196036 l -0.455882,0.532583 2.280213,-0.072 c 1.360802,-0.04296 2.629111,-0.150498 3.145521,-0.266732 z m 0.07081,-2.740641 c -0.252543,-0.321045 -0.256208,-0.428766 -0.256208,-7.532549 0,-4.280924 0.04795,-7.332954 0.118112,-7.517466 0.198741,-0.522743 0.683528,-0.746473 1.599326,-0.738091 2.319286,0.02128 3.252085,1.737526 3.248616,5.977275 -0.0039,4.687696 -1.363245,8.997274 -3.120965,9.893995 -0.687049,0.350501 -1.271817,0.319902 -1.588868,-0.08316 z m 33.491064,2.979112 c 0,-0.03639 -0.07922,-0.189348 -0.176236,-0.339938 -0.802586,-1.246815 -1.091561,-4.562607 -0.567294,-6.509543 l 0.142838,-0.530507 0.646741,0.0536 c 1.158908,0.09604 2.18278,1.073207 2.888893,2.756906 0.428292,1.021285 0.690373,2.583285 0.615853,3.670536 l -0.06622,0.96508 h 2.087069 2.087068 l -0.373051,-0.587169 c -0.667368,-1.050438 -1.290749,-3.584192 -1.959641,-7.965045 -0.64117,-4.199309 -0.674804,-4.633671 -0.401503,-5.186067 l 0.236303,-0.477612 h -1.754567 -1.75454 l -1.048074,1.081654 c -1.242032,1.281842 -1.78774,2.014349 -2.371523,3.183385 -0.843656,1.689389 -1.053972,2.694342 -1.440643,6.883838 -0.129805,1.406641 -0.297409,2.672177 -0.372389,2.812283 -0.13485,0.251991 -0.116273,0.254737 1.722273,0.254737 1.022218,0 1.858582,-0.02982 1.858582,-0.06622 z m 1.792444,-8.774135 c -0.203957,-0.09184 -0.659787,-0.204653 -1.012942,-0.250571 l -0.642076,-0.08356 0.318128,-0.511996 c 0.546812,-0.879983 1.198203,-1.689559 1.281946,-1.593243 0.04415,0.05085 0.176157,0.565166 0.293376,1.143063 0.117193,0.57791 0.240442,1.148094 0.273813,1.267074 0.07068,0.252069 -0.0079,0.256523 -0.512245,0.02917 z m 9.331694,8.438546 C 62.09432,82.150803 62.080091,81.90299 62.085189,78.356636 l 0.0053,-3.770294 1.569056,4.17206 c 0.862969,2.294626 1.599234,4.172048 1.636126,4.172048 0.03692,0 0.712957,-1.960863 1.502353,-4.35748 l 1.435269,-4.35748 0.01314,3.955727 c 0.01182,3.738211 0,3.977812 -0.232296,4.35748 l -0.244962,0.401753 h 2.037866 c 1.120819,0 2.037852,-0.03363 2.037852,-0.07489 0,-0.04125 -0.139068,-0.240153 -0.309036,-0.442153 L 71.22682,82.046142 V 75.86667 c 0,-6.438492 0.0039,-6.497574 0.539822,-6.934919 0.252674,-0.206466 0.173569,-0.214192 -1.896722,-0.185432 l -2.160379,0.02996 -1.058545,3.399443 c -0.582206,1.86971 -1.111951,3.582484 -1.177248,3.806162 -0.108653,0.372363 -0.217319,0.08264 -1.286256,-3.430344 L 63.01988,68.714474 h -2.086885 -2.086884 l 0.383583,0.383596 0.383596,0.383583 -0.03416,6.322599 -0.03416,6.322613 -0.286544,0.401753 -0.28657,0.401753 h 1.799039 1.79904 z m 15.051736,0.06175 c -0.178377,-0.186957 -0.383478,-0.496532 -0.45579,-0.68793 -0.187719,-0.496873 -0.180992,-11.871701 0.0079,-12.238112 0.07633,-0.148501 0.281393,-0.422984 0.45579,-0.609954 L 77.701433,68.7145 h -2.333672 c -1.890272,0 -2.295979,0.02943 -2.135365,0.154532 0.109047,0.085 0.314187,0.349213 0.45583,0.587172 0.251373,0.422314 0.257548,0.57477 0.257995,6.372945 v 5.940305 l -0.368119,0.580472 -0.368133,0.580471 h 2.245489 2.245515 z m 5.051518,-0.03652 C 82.253762,82.346869 82.053523,81.963234 81.98301,81.701403 81.90129,81.398108 81.866474,79.291306 81.8871,75.896212 l 0.03219,-5.329129 3.028604,6.180957 3.028604,6.180957 1.388366,7.49e-4 1.388365,7.62e-4 0.03324,-9.196765 0.03324,-9.196764 0.407586,-0.507134 0.407573,-0.507122 h -2.230913 c -1.227016,0 -2.230932,0.03363 -2.230932,0.07489 0,0.04125 0.137623,0.238406 0.305805,0.43829 0.529338,0.629083 0.564299,1.035606 0.530074,6.165769 l -0.03232,4.849322 -2.793129,-5.73322 -2.793115,-5.733207 -2.33111,-0.03377 -2.33111,-0.03377 0.574152,0.550136 c 0.374045,0.358397 0.620924,0.723862 0.708372,1.048586 0.09184,0.34112 0.123368,3.070962 0.09985,8.649466 l -0.03429,8.15103 -0.407573,0.507108 -0.4076,0.507095 h 2.241929 2.241902 z M 94.064218,66.250628 c 1.221051,-0.884516 1.959325,-2.564076 1.710383,-3.891061 l -0.0833,-0.443966 h -1.552397 -1.552409 l 0.377552,0.430014 c 0.666869,0.759519 0.685867,2.147977 0.04559,3.330152 -0.360841,0.666224 -0.361143,0.668511 -0.101558,0.794335 0.41987,0.203537 0.626311,0.164346 1.156161,-0.219474 z m -49.954934,-0.07055 c 1.012824,-0.340713 1.77371,-0.996335 2.257918,-1.945504 0.372875,-0.730983 0.426939,-0.962504 0.479465,-2.053172 0.04901,-1.016502 0.0138,-1.378801 -0.203195,-2.093125 -0.485851,-1.599562 -1.718989,-2.586451 -3.595596,-2.877633 -1.065088,-0.165239 -2.502682,-0.0092 -3.382574,0.368553 -0.799669,0.342776 -1.729039,1.246644 -2.080118,2.02302 -0.256326,0.566887 -0.291418,0.830925 -0.291418,2.192318 0,1.504416 0.01182,1.571276 0.412119,2.384938 0.595186,1.20899 1.431735,1.821729 3.049139,2.233348 0.514242,0.130857 2.730485,-0.02286 3.35426,-0.232743 z M 41.36302,65.009807 c -0.426768,-0.172636 -0.903054,-0.844787 -1.114828,-1.573286 -0.306278,-1.053605 -0.20405,-2.995155 0.200186,-3.801446 0.407048,-0.81194 0.826459,-1.104712 1.582575,-1.104712 0.761358,0 1.253857,0.33777 1.643628,1.127271 0.258034,0.522663 0.291037,0.763368 0.292653,2.1343 0.0013,1.403067 -0.02654,1.602045 -0.307223,2.163112 -0.492801,0.985312 -1.418229,1.410267 -2.296991,1.054761 z m 12.817612,1.085346 c 0.747564,-0.342578 1.266588,-0.907114 1.541019,-1.676119 0.119557,-0.334905 0.167026,-1.261411 0.170954,-3.333594 l 0.0053,-2.869776 0.383649,-0.436963 0.383635,-0.436951 h -1.698328 -1.698296 l 0.325709,0.256208 0.325709,0.256195 v 2.908232 c 0,2.399232 -0.03429,2.980558 -0.196074,3.321441 -0.252043,0.531138 -0.717792,0.83224 -1.28732,0.83224 -0.579736,0 -1.032308,-0.300524 -1.318221,-0.875372 -0.195536,-0.393082 -0.232454,-0.838086 -0.266429,-3.211015 l -0.03942,-2.754712 0.392451,-0.366608 0.392477,-0.366609 h -2.059635 -2.059649 l 0.346848,0.298027 0.346835,0.29804 0.06175,3.132317 c 0.06622,3.355128 0.09827,3.529813 0.787057,4.287809 0.97446,1.072365 3.607486,1.448565 5.159751,0.73721 z m 10.401445,0.06622 0.710803,-0.199018 v -1.340727 -1.340726 l -0.5198,0.56393 c -0.706703,0.766667 -1.351868,1.084756 -2.211894,1.090563 -0.944794,0.0066 -1.572104,-0.409032 -2.029549,-1.344011 -0.86004,-1.757865 -0.28862,-4.126078 1.139567,-4.722801 1.079579,-0.451087 2.769992,0.106682 3.386213,1.11718 l 0.234543,0.384634 v -1.335196 -1.335182 l -0.410674,-0.171585 c -1.280277,-0.534935 -3.808737,-0.480214 -5.098724,0.110361 -1.851776,0.847768 -2.804584,2.820153 -2.426743,5.023521 0.445372,2.597238 2.378802,3.926363 5.463795,3.756053 0.577923,-0.03193 1.370616,-0.147555 1.761557,-0.25701 z m -29.698842,0.127961 c 0,-0.04204 -0.166868,-0.266456 -0.370852,-0.498766 l -0.370852,-0.42238 V 62.096659 58.82513 h 0.688035 c 0.8016,0 1.10278,0.127309 1.564641,0.661455 l 0.336626,0.389285 0.0039,-1.449432 0.0039,-1.449432 -0.339937,0.144336 c -0.540834,0.229643 -6.106569,0.277216 -6.92253,0.05912 l -0.648974,-0.173424 0.0039,1.434389 0.0039,1.434389 0.256142,-0.343407 c 0.369131,-0.494876 0.863521,-0.707334 1.64594,-0.707334 h 0.686191 v 3.275484 3.275471 l -0.447041,0.494824 -0.44704,0.494824 h 2.177669 c 1.197718,0 2.177683,-0.03442 2.177683,-0.07646 z M 70.457781,66.086979 C 69.977908,65.690665 69.86668,65.276418 69.86668,63.885359 V 62.65724 h 1.359791 1.359777 v 1.306094 c 0,1.394843 -0.08238,1.687102 -0.598826,2.123645 l -0.32831,0.277518 2.21845,7.49e-4 2.218437,7.62e-4 L 75.670006,65.926693 75.244,65.487391 75.20524,62.187299 c -0.02128,-1.815055 -0.0053,-3.478718 0.03561,-3.697036 0.04086,-0.218317 0.243385,-0.565993 0.449996,-0.772605 l 0.375661,-0.37566 h -2.17474 -2.174752 l 0.40371,0.36042 0.403697,0.36042 0.04125,1.493826 0.04125,1.493827 h -1.37013 -1.370143 V 59.74638 c 0,-1.395566 0.133484,-1.853235 0.644889,-2.211448 0.253961,-0.177891 0.102083,-0.192881 -1.946254,-0.192317 l -2.221695,7.49e-4 0.328297,0.277532 c 0.180572,0.152626 0.389167,0.39902 0.463568,0.547521 0.169352,0.338072 0.186576,6.81046 0.01931,7.250445 -0.06372,0.167736 -0.271803,0.449497 -0.462307,0.626127 l -0.346323,0.32115 2.223811,-7.48e-4 2.223836,-7.49e-4 z M 27.837102,61.099286 c 0,-0.04099 -0.238958,-0.340332 -0.53102,-0.665174 -0.847466,-0.9426 -0.857661,-1.009237 -0.919871,-6.01217 l -0.05557,-4.46499 1.042292,-0.05465 c 1.386803,-0.07279 2.195445,-0.499199 2.781935,-1.466946 0.455567,-0.751688 0.518525,-1.061579 0.185432,-0.912579 -0.476496,0.213141 -2.302482,0.191424 -3.121307,-0.03718 l -0.803506,-0.224256 0.0013,-1.571709 c 0.0013,-1.54203 0.0079,-1.578029 0.335024,-1.905525 0.29239,-0.29239 0.430933,-0.333789 1.116812,-0.333789 1.640554,0 2.61169,0.548191 3.050953,1.722234 0.140368,0.375161 0.255222,0.819088 0.255222,0.986508 0,0.510681 0.24374,0.341842 0.586673,-0.406391 0.680112,-1.483894 0.303374,-3.721986 -0.732875,-4.353775 -0.392044,-0.23901 -0.611136,-0.250033 -4.980546,-0.25048 l -4.570437,-3.02e-4 0.40488,0.369814 c 0.752464,0.687272 0.932365,1.310955 0.987243,3.42271 l 0.04874,1.876476 -0.605145,0.306659 c -0.64611,0.327404 -1.49765,1.16679 -1.824081,1.798041 -0.231745,0.448131 -0.282498,0.437594 0.961584,0.19953 0.532899,-0.101952 1.07527,-0.185393 1.205259,-0.185393 0.228684,0 0.23637,0.156003 0.23637,4.798595 0,5.689457 -0.0092,5.747988 -1.067492,6.781202 l -0.6742,0.658223 h 3.343172 c 1.838743,0 3.343172,-0.0335 3.343172,-0.07449 z m 55.874624,0.02838 c 0,-0.02536 -0.125207,-0.317392 -0.278149,-0.648987 L 83.155454,59.875793 V 51.222648 42.56949 l 0.27807,-0.679889 c 0.152942,-0.373939 0.27811,-0.693802 0.278136,-0.710789 3.9e-5,-0.01695 -0.997321,-0.03088 -2.216335,-0.03088 h -2.216388 l 0.331254,0.587185 c 0.31483,0.558098 0.333276,0.685696 0.372441,2.576795 0.03574,1.722365 0.01366,2.017107 -0.163334,2.194197 -0.168523,0.168511 -0.476785,0.204562 -1.749075,0.204562 -0.849476,0 -1.652102,-0.05754 -1.783602,-0.127966 -0.220433,-0.117981 -0.239115,-0.275928 -0.239115,-2.02122 0,-1.935033 0.08737,-2.449853 0.521797,-3.073602 l 0.236737,-0.339951 h -2.233507 c -1.228448,0 -2.233507,0.01905 -2.233507,0.04244 0,0.02339 0.125207,0.371023 0.278123,0.772605 0.275285,0.722654 0.277755,0.785113 0.240495,6.09435 -0.03718,5.304455 -0.05282,5.526872 -0.4534,6.47206 -0.0854,0.201435 0.06241,0.216333 2.146637,0.216333 1.231076,0 2.238329,-0.03009 2.238329,-0.06687 0,-0.03679 -0.10931,-0.217529 -0.242886,-0.401753 -0.372087,-0.513073 -0.492486,-1.286729 -0.495796,-3.185382 -0.0039,-2.297792 -0.07857,-2.206061 1.836391,-2.258982 1.454753,-0.0402 1.496178,-0.0339 1.80264,0.272526 l 0.313674,0.313674 -0.0013,4.610325 c 0,4.801762 -0.07121,5.743508 -0.489989,6.546921 -0.138043,0.264853 -0.250992,0.507634 -0.250992,0.539547 0,0.03193 1.001288,0.05794 2.225098,0.05794 1.22381,0 2.225099,-0.02076 2.225099,-0.04612 z M 36.604523,54.427013 c -0.294742,-0.313451 -0.300326,-0.361655 -0.337652,-2.918375 -0.03377,-2.313794 -0.01458,-2.625353 0.173674,-2.833501 0.265011,-0.292825 0.692646,-0.300721 0.94863,-0.01747 0.107602,0.119032 0.282971,0.720446 0.389798,1.336614 0.332343,1.916784 0.736658,3.000265 1.57703,4.226125 l 0.360157,0.52537 h 5.317699 c 3.573392,0 5.399575,-0.04388 5.567298,-0.133602 0.39517,-0.211486 0.717293,-1.06941 0.720354,-1.918532 0.0026,-0.746998 -0.182621,-1.532741 -0.361445,-1.532741 -0.05098,0 -0.198558,0.235896 -0.327864,0.52424 -0.521757,1.163466 -1.396327,1.700845 -2.768047,1.700845 -0.988571,0 -1.012351,-0.05045 -1.084085,-2.29862 l -0.0628,-1.970138 1.045275,0.0026 c 0.909479,0.0013 1.102925,-0.03744 1.489149,-0.301994 0.44528,-0.304938 1.083665,-1.156175 1.083665,-1.444952 0,-0.118375 -0.08803,-0.123631 -0.378288,-0.02233 -0.52248,0.182135 -1.514598,0.07449 -2.433996,-0.264157 l -0.772592,-0.28456 v -1.026119 c 0,-0.564378 0.05426,-1.168827 0.120609,-1.343223 0.113251,-0.297935 0.171887,-0.317091 0.970479,-0.317091 1.481555,0 2.274275,0.438934 2.850385,1.578279 l 0.352655,0.697388 0.215217,-0.416178 c 0.282839,-0.546943 0.382032,-1.704589 0.194721,-2.272186 -0.08146,-0.246814 -0.290656,-0.560869 -0.464855,-0.697914 -0.301246,-0.236961 -0.494562,-0.249166 -3.946781,-0.249166 -1.996519,0 -3.630018,0.03009 -3.630018,0.06687 0,0.03679 0.121134,0.230655 0.269162,0.430894 0.304833,0.412303 0.450338,1.231706 0.463503,2.610205 0.0092,0.920265 0,0.946738 -0.316368,1.026303 -0.378446,0.09499 -1.776074,1.445294 -1.776074,1.715941 0,0.159458 0.08527,0.162467 0.648974,0.02286 0.356952,-0.08842 0.834723,-0.193933 1.061711,-0.234608 l 0.412737,-0.07397 -0.04901,2.50234 c -0.02693,1.376279 -0.09262,2.597566 -0.146018,2.713957 -0.05334,0.116405 -0.200331,0.244423 -0.326641,0.284508 -0.896485,0.284534 -3.218557,-2.620873 -3.761926,-4.707022 -0.264709,-1.016266 -0.248798,-1.094964 0.258284,-1.278333 0.585569,-0.211749 1.339386,-0.902345 1.750323,-1.60353 0.431064,-0.735556 0.466826,-1.798896 0.07817,-2.323543 -0.723363,-0.976392 -1.773,-1.172532 -6.025952,-1.126022 l -3.194408,0.03495 0.289421,0.367686 0.289421,0.367685 0.03482,5.14124 0.03468,5.141226 -0.309168,0.45558 -0.309155,0.455554 h 2.057495 2.057494 z m 0.0092,-7.752351 c -0.287924,-0.145295 -0.31152,-0.227343 -0.345404,-1.201094 -0.04349,-1.249902 0.04415,-1.358857 1.092284,-1.358857 0.832712,0 1.438028,0.188388 1.604436,0.499343 0.208596,0.389758 0.143075,1.293508 -0.117849,1.625195 -0.408756,0.519629 -1.604647,0.752779 -2.233507,0.435413 z m 18.756812,7.545687 c -0.260254,-0.495113 -0.278411,-0.699661 -0.315264,-3.551859 -0.02155,-1.664583 0.0066,-2.982029 0.06175,-2.927676 0.05544,0.05439 1.105027,1.638793 2.332306,3.520971 l 2.231391,3.422132 1.013533,0.03587 1.013533,0.03587 V 49.30341 c 0,-5.653077 0.0039,-5.690376 0.531467,-6.270401 l 0.25333,-0.278136 h -1.76061 -1.760584 l 0.253895,0.356557 c 0.420186,0.590089 0.512719,1.408152 0.476799,4.215378 l -0.0339,2.655886 -1.349306,-2.099615 c -0.742124,-1.154782 -1.738722,-2.781041 -2.214666,-3.613911 l -0.865374,-1.514295 -1.61743,0.0039 c -1.294126,0.0026 -1.579251,0.03403 -1.426349,0.154519 0.620294,0.488806 0.612595,0.415916 0.609692,5.771741 -0.0026,4.681245 -0.01839,5.044332 -0.241191,5.535228 l -0.238472,0.52537 h 1.6608 1.660786 z m 14.956892,0.336128 c 0.492932,-0.205968 1.269741,-0.75793 1.269741,-0.90224 0,-0.04953 -0.392412,-0.151746 -0.872022,-0.227277 -2.985169,-0.470046 -4.954493,-3.165005 -4.78635,-6.54997 0.06569,-1.322438 0.426413,-2.066835 1.199754,-2.475775 0.312242,-0.16512 0.756116,-0.286307 1.047719,-0.286044 1.077187,0.0011 1.691516,0.770555 2.107655,2.640265 0.07765,0.349174 0.08211,0.350803 0.337573,0.12363 0.14234,-0.126652 0.414813,-0.557743 0.605474,-0.958063 0.581812,-1.221537 0.625772,-2.663941 0.107208,-3.516649 -0.222785,-0.366346 -0.264025,-0.386224 -0.43875,-0.211499 -0.430013,0.430013 -0.757798,0.496151 -2.831334,0.571223 -1.745554,0.0632 -2.219817,0.121922 -2.800223,0.346888 -0.980346,0.379943 -1.716939,0.983893 -2.146992,1.760374 -0.349042,0.630239 -0.368224,0.73922 -0.366989,2.086555 0.0013,1.139122 0.0586,1.605817 0.289645,2.348716 0.819758,2.63593 2.416127,4.529354 4.395725,5.21367 0.794822,0.274759 2.266957,0.293258 2.882166,0.03626 z M 28.801603,35.099411 c -0.04125,-2.975039 -0.05321,-3.023927 -0.888707,-3.647741 -0.473015,-0.353155 -1.533267,-0.353155 -2.006255,0 -0.83555,0.623814 -0.847467,0.672702 -0.888721,3.647741 l -0.03758,2.710857 h 1.929436 1.929437 z m 10.77884,1.221327 c 0,-1.649343 -0.109573,-2.016109 -0.735752,-2.461967 -0.345837,-0.246249 -0.387498,-0.250138 -0.673175,-0.06293 -0.615196,0.403093 -0.692554,0.67148 -0.692554,2.403095 v 1.61136 h 1.05074 1.050741 z m 4.82022,-0.395617 c -0.0013,-2.051898 -0.05452,-2.245857 -0.778753,-2.815529 -0.439315,-0.345561 -0.805188,-0.257325 -1.308144,0.315487 l -0.384621,0.438067 v 1.973568 1.973554 h 1.236186 1.23616 z m 4.451011,0.263591 V 34.567157 L 48.36384,34.079335 c -0.5512,-0.551226 -0.715244,-0.531821 -1.291275,0.152758 -0.31102,0.36963 -0.322372,0.439355 -0.322372,1.980649 v 1.597526 h 1.050741 1.05074 z m 13.455117,1.219803 c -0.527761,-0.748851 -1.4624,-1.559662 -2.237514,-1.94109 -1.518381,-0.747169 -3.022245,-0.735331 -4.478903,0.03521 -0.722128,0.382019 -2.008778,1.537655 -2.283498,2.05099 l -0.13732,0.256589 h 4.710188 4.710188 z m 10.402851,-1.003154 c 0,-1.23415 -0.03114,-1.444518 -0.256208,-1.730642 -0.195352,-0.248351 -0.364178,-0.324776 -0.71079,-0.321768 -0.902896,0.0079 -1.134483,0.462859 -1.134483,2.229198 v 1.228119 h 1.050727 1.050754 z m 3.214023,-0.02234 c 0,-1.350475 -0.01629,-1.44352 -0.303413,-1.730629 -0.412829,-0.412815 -1.081826,-0.412815 -1.494654,0 -0.287109,0.287109 -0.303414,0.380154 -0.303414,1.730629 v 1.427203 h 1.050754 1.050727 z m 3.214024,0.199096 c 0,-1.286557 -0.115748,-1.796661 -0.468416,-2.064615 -0.336286,-0.255485 -1.022665,-0.204404 -1.346955,0.100245 -0.267769,0.251557 -0.286097,0.362404 -0.286097,1.730629 v 1.461834 h 1.05074 1.050728 z m -9.723422,-3.75667 c 0.0448,0.04467 0.08133,-0.01182 0.08133,-0.124681 0,-0.113383 0.04914,-0.20602 0.109178,-0.20602 0.06004,0 0.134838,-0.134128 0.166172,-0.298054 0.05571,-0.29126 -0.247431,-0.690885 -0.52403,-0.690885 -0.06727,0 -0.122185,-0.0561 -0.122185,-0.124681 0,-0.125733 -0.409229,0.06201 -0.690544,0.316709 -0.16696,0.151155 -0.195864,0.796897 -0.03574,0.796897 0.05952,0 0.108127,0.08172 0.108127,0.181544 0,0.104711 0.07318,0.153467 0.172912,0.115222 0.09512,-0.03652 0.211314,-0.0039 0.258244,0.07173 0.05952,0.0963 0.132223,0.09906 0.240206,0.0092 0.08513,-0.07068 0.191502,-0.09197 0.236225,-0.04717 z m 11.65454,0.0011 c 0.101164,0.03889 0.170376,-0.01524 0.170376,-0.133261 0,-0.10931 0.05176,-0.198649 0.115222,-0.198649 0.145873,0 0.09801,-0.480648 -0.07949,-0.797331 -0.188415,-0.336299 -0.995626,-0.336299 -1.184054,0 -0.177431,0.316683 -0.225307,0.797331 -0.07949,0.797331 0.06333,0 0.115222,0.08934 0.115222,0.198649 0,0.123893 0.06832,0.172426 0.181465,0.129017 0.09985,-0.03823 0.217345,-0.01182 0.261187,0.05938 0.0536,0.08671 0.120609,0.08816 0.204443,0.0039 0.06858,-0.06858 0.201383,-0.09525 0.295084,-0.05938 z M 59.729918,32.558234 c 0,-0.03298 -0.192895,-0.714442 -0.428647,-1.514295 -0.235765,-0.799854 -0.488242,-1.690689 -0.561054,-1.979651 l -0.13238,-0.52537 h -0.740811 c -0.484037,0 -0.757837,0.0536 -0.789947,0.154532 -0.02707,0.085 -0.253212,0.905484 -0.502641,1.823345 -0.249455,0.917848 -0.482395,1.766168 -0.517684,1.885147 -0.05912,0.19932 0.08277,0.216334 1.804492,0.216334 1.027761,0 1.868672,-0.02707 1.868672,-0.06004 z m 13.324667,-1.207032 c -0.03508,-0.995836 -0.04323,-1.01984 -0.344943,-1.01984 -0.301771,0 -0.309878,0.02404 -0.344944,1.01984 l -0.03587,1.019839 h 0.380863 0.38085 z m 4.326566,0 c -0.03508,-0.995836 -0.04323,-1.01984 -0.34493,-1.01984 -0.301784,0 -0.309891,0.02404 -0.344957,1.01984 l -0.03587,1.019839 h 0.38085 0.380837 z m -53.5,-0.154532 v -0.803505 h -1.359777 -1.359777 v 0.803505 0.803506 h 1.359777 1.359777 z m 8.776776,0 v -0.803505 h -1.297975 -1.297975 v 0.803505 0.803506 h 1.297975 1.297975 z m 42.771282,-0.157921 c 0,-0.987506 -0.192711,-1.510906 -0.556271,-1.510906 -0.363573,0 -0.556284,0.5234 -0.556284,1.510906 v 0.961427 h 0.556284 0.556271 z m -31.093264,-0.56757 c 0.747721,-0.402489 1.07339,-1.059766 1.025383,-2.069529 -0.03179,-0.667236 -0.101821,-0.899703 -0.382124,-1.267205 -1.067781,-1.399928 -3.195998,-1.144232 -3.930239,0.472226 -0.124813,0.274772 -0.226936,0.694275 -0.226936,0.932234 0,0.906194 0.796424,2.001972 1.580209,2.174135 0.181728,0.03994 0.386053,0.09105 0.45403,0.113514 0.249192,0.08251 1.00188,-0.09827 1.479677,-0.355414 z m 31.093264,-3.361986 c 0,-1.078212 -0.131947,-1.41346 -0.556271,-1.41346 -0.424351,0 -0.556284,0.335248 -0.556284,1.41346 v 0.935243 h 0.556284 0.556271 z m -53.89676,-0.42841 c 0,-0.291563 -0.326918,-0.460362 -0.519196,-0.268072 -0.192277,0.192278 -0.02352,0.519182 0.268085,0.519182 0.169996,0 0.251111,-0.08106 0.251111,-0.25111 z m 1.607011,0 c 0,-0.291563 -0.326904,-0.460362 -0.519195,-0.268072 -0.192277,0.192278 -0.02352,0.519182 0.268085,0.519182 0.169995,0 0.25111,-0.08106 0.25111,-0.25111 z m 1.607012,0 c 0,-0.291563 -0.326904,-0.460362 -0.519195,-0.268072 -0.192264,0.192278 -0.02352,0.519182 0.268085,0.519182 0.169995,0 0.25111,-0.08106 0.25111,-0.25111 z m 1.607012,0 c 0,-0.291563 -0.326905,-0.460362 -0.519195,-0.268072 -0.192265,0.192278 -0.02352,0.519182 0.268085,0.519182 0.169995,0 0.25111,-0.08106 0.25111,-0.25111 z m 1.584716,-0.02575 c -0.0473,-0.331595 -0.409084,-0.436661 -0.518827,-0.150695 -0.104318,0.271961 0.0079,0.427583 0.309785,0.427583 0.186747,0 0.238708,-0.06885 0.209042,-0.276888 z m 1.668223,0.106551 c 0.07318,-0.190491 -0.133419,-0.447724 -0.359448,-0.447724 -0.17349,0 -0.328994,0.343564 -0.228841,0.505624 0.107076,0.173253 0.515004,0.133116 0.588289,-0.05794 z m 1.637242,0.03482 c 0.04612,-0.07449 -0.0039,-0.222705 -0.110098,-0.329322 -0.156055,-0.156069 -0.229774,-0.16403 -0.37813,-0.04086 -0.101296,0.08408 -0.153835,0.232323 -0.116536,0.329322 0.07988,0.207991 0.484642,0.235384 0.60483,0.04086 z m 1.592783,0.02299 c 0.119295,-0.192948 -0.0762,-0.519642 -0.286793,-0.479531 -0.110492,0.02102 -0.218554,0.162835 -0.240272,0.315106 -0.02969,0.208057 0.02234,0.276888 0.209029,0.276888 0.136703,0 0.279804,-0.05058 0.318036,-0.112463 z m 25.611641,-0.59834 c -0.136795,-1.036026 -0.447473,-4.769323 -0.450075,-5.40822 -0.0013,-0.339938 -0.05649,-0.701528 -0.122316,-0.803506 -0.08422,-0.130463 -0.121135,0.05295 -0.124419,0.618086 -0.0026,0.44193 -0.113383,1.943862 -0.246473,3.337641 -0.13305,1.393779 -0.243122,2.603675 -0.24458,2.688653 -0.0013,0.103923 0.205153,0.154532 0.631356,0.154532 h 0.63401 z m 10.653489,-3.082142 c 0.08921,-0.03574 0.195864,-0.0314 0.236934,0.0092 0.04112,0.04112 -0.03193,0.07029 -0.162244,0.0649 -0.143994,-0.0066 -0.173293,-0.03521 -0.07476,-0.07462 z m 11.372712,0 c 0.08921,-0.03574 0.195864,-0.0314 0.236934,0.0092 0.04112,0.04112 -0.03193,0.07029 -0.162243,0.0649 -0.144008,-0.0066 -0.173306,-0.03521 -0.07462,-0.07462 z"
     id="path1" /></svg>
